<svg width="90" height="19" viewBox="0 0 90 19" fill="none" xmlns="http://www.w3.org/2000/svg">
  <g clip-path="url(#clip0_91_3004)">
    <path
      d="M89.5533 5.52404C89.1906 6.94571 88.3728 8.21762 87.2187 9.15517C87.2168 9.15759 87.2158 9.16055 87.2158 9.1636C87.2158 9.16665 87.2168 9.16961 87.2187 9.17202C87.9048 10.143 88.1607 11.4371 87.8216 12.8614L87.5516 14.0038C86.9973 16.3455 84.6031 18.2445 82.2041 18.2445H67.9357C67.3862 18.2445 67.0439 17.8096 67.1695 17.2751L67.9263 14.0896C67.9273 14.0858 67.9295 14.0824 67.9326 14.0799C67.9357 14.0775 67.9395 14.076 67.9435 14.0758H80.5037C80.9021 14.0664 81.2853 13.9248 81.5902 13.6746C81.8962 13.4345 82.1162 13.1057 82.2182 12.7358C82.416 11.97 81.8681 11.3391 81.0799 11.3391H74.0855C73.9945 11.3429 73.9039 11.3253 73.8213 11.2878C73.7388 11.2502 73.6668 11.1938 73.6113 11.1234C73.5559 11.0529 73.5186 10.9704 73.5028 10.8829C73.4869 10.7955 73.4929 10.7055 73.5203 10.6208L74.2048 7.72937C74.2567 7.53092 74.3726 7.354 74.5355 7.22469C74.6983 7.09537 74.8994 7.0205 75.1091 7.01111H82.1742C82.5728 7.00182 82.9564 6.8609 83.2622 6.61139C83.569 6.37126 83.789 6.04179 83.8903 5.67106C84.0881 4.90532 83.5417 4.27435 82.7536 4.27435H70.2625C70.2607 4.27443 70.259 4.27409 70.2574 4.27337C70.2558 4.27265 70.2544 4.27157 70.2533 4.27023C70.2522 4.26888 70.2515 4.2673 70.2512 4.26562C70.2509 4.26394 70.251 4.26221 70.2515 4.26057L71.0286 0.97402C71.0996 0.704668 71.2574 0.464659 71.4787 0.289316C71.7 0.113973 71.9731 0.0125593 72.258 0L86.6472 0C88.9756 0 90.4341 1.83777 89.8877 4.11049L89.5533 5.52404Z"
      fill="white" />
    <path
      d="M25.4531 14.0681C25.563 16.4848 27.1331 18.2445 29.4598 18.2445H39.3839C41.7107 18.2445 44.1129 16.4848 45.3657 14.0681H25.4531Z"
      fill="white" />
    <path
      d="M43.7007 0H33.7766C31.4215 0 28.9864 1.80408 27.7461 4.2667H47.7105C47.6352 1.80408 46.0557 0 43.7007 0Z"
      fill="white" />
    <path d="M26.8811 7.00342H31.9789L30.9553 11.3314H25.8574L26.8811 7.00342Z" fill="white" />
    <path d="M47.2993 7.00342L46.2756 11.3314H41.1777L42.203 7.00342H47.2993Z" fill="white" />
    <path
      d="M61.806 11.3314L60.5547 9.14442L62.792 7.00342H53.1772L54.4002 9.14442L52.1143 11.3314H61.806Z"
      fill="white" />
    <path
      d="M49.0993 14.2167L45.5542 17.612C45.2857 17.8678 45.383 18.246 45.719 18.246H64.9314C65.2674 18.246 65.5437 17.8678 65.4024 17.612L63.4571 14.2167C63.4289 14.1691 63.3881 14.1297 63.3389 14.1027C63.2898 14.0758 63.2341 14.0623 63.1777 14.0636H49.4557C49.321 14.0675 49.1931 14.1224 49.0993 14.2167Z"
      fill="white" />
    <path
      d="M51.4971 4.1183L49.5503 0.726073C49.4027 0.468785 49.6806 0.092041 50.0213 0.092041H69.229C69.5634 0.092041 69.6623 0.468785 69.3938 0.726073L65.8487 4.1183C65.7564 4.21206 65.6302 4.26701 65.497 4.27144H51.7703C51.715 4.27166 51.6606 4.25761 51.6126 4.23071C51.5646 4.20382 51.5248 4.16504 51.4971 4.1183Z"
      fill="white" />
    <path
      d="M22.4653 9.20253C22.915 9.84309 23.1742 10.5926 23.2142 11.368H3.58887L4.61252 7.04468H24.2378C23.7942 7.86814 23.1924 8.60073 22.4653 9.20253Z"
      fill="white" />
    <path
      d="M25.1281 4.21917C25.1225 4.24257 25.1092 4.26353 25.0902 4.27876C25.0712 4.294 25.0475 4.30266 25.0229 4.3034H5.3458C5.33512 4.30392 5.32447 4.30189 5.31477 4.2975C5.30507 4.29311 5.29661 4.28649 5.29012 4.2782C5.28363 4.26991 5.27931 4.2602 5.27752 4.24992C5.27573 4.23964 5.27653 4.22908 5.27986 4.21917L5.71789 2.36455L3.69727 0.796318C3.62366 0.742225 3.5695 0.666793 3.54254 0.580829C3.51557 0.494866 3.5172 0.402783 3.54718 0.317775C3.57715 0.232768 3.63395 0.159198 3.70942 0.107607C3.78489 0.0560161 3.87517 0.0290523 3.96732 0.030579H21.831C24.1986 0.0367049 25.6745 1.9097 25.1281 4.21917Z"
      fill="white" />
    <path
      d="M22.7646 14.1922C22.146 16.465 19.8036 18.2813 17.4564 18.2813H0.437342C0.344925 18.2835 0.254178 18.257 0.178182 18.2057C0.102186 18.1543 0.0448655 18.0808 0.0144819 17.9956C-0.0159017 17.9104 -0.0177789 17.8181 0.00912073 17.7318C0.0360204 17.6455 0.0903076 17.5698 0.164158 17.5156L2.57414 15.6471L2.91955 14.1815C2.92563 14.1581 2.93932 14.1373 2.95857 14.1221C2.97781 14.1069 3.00158 14.0982 3.02631 14.0973H22.6971C22.7092 14.096 22.7213 14.098 22.7324 14.1029C22.7434 14.1078 22.7528 14.1155 22.7597 14.1252C22.7666 14.135 22.7707 14.1463 22.7716 14.1581C22.7725 14.1699 22.7701 14.1817 22.7646 14.1922Z"
      fill="white" />
  </g>
  <defs>
    <clipPath id="clip0_91_3004">
      <rect width="90" height="18.2812" rx="5" fill="white" />
    </clipPath>
  </defs>
</svg>
